{"title":"Serena 2014 HDRIP X264 AC3 TiTAN","uid":11543530,"size":1278828934,"categoryP":"video","categoryS":"movies","magnet":"?xt=urn:btih:5234f7dc90f62d83ed3abbf284a175f1a4aecae7&amp;dn=Serena+2014+HDRIP+X264+AC3+TiTAN&amp;tr=udp%3A%2F%2Ftracker.openbittorrent.com%3A80&amp;tr=udp%3A%2F%2Fopen.demonii.com%3A1337&amp;tr=udp%3A%2F%2Ftracker.coppersurfer.tk%3A6969&amp;tr=udp%3A%2F%2Fexodus.desync.com%3A6969","seeders":1,"leechers":0,"uploader":"TvTeam","files":3,"time":1416697464,"description":" &lt;a href=&quot;http://www.torrenting.com&quot; rel=&quot;nofollow&quot; target=&quot;_NEW&quot;&gt;http://www.torrenting.com&lt;/a&gt;\n\nSign up is OPEN - for time being. Come and have fun.\n\n------------------------------------------------------------------[IMG]http://i.imgur.com/PekNli5.jpg[/IMG]\n &lt;a href=&quot;\nhttp://www.imdb.com/title/tt1247690/&quot; rel=&quot;nofollow&quot; target=&quot;_NEW&quot;&gt;\nhttp://www.imdb.com/title/tt1247690/&lt;/a&gt;\n\nSOURCE: CHN WEB-DL\n\nNote: Had one small line of hard-coded subs, chose to remove them to have a clean copy..  Enjoy\n\nGeneral\n\nFormat                                   : Matroska\nFormat version                           : Version 2\nFile size                                : 1.19 GiB\nDuration                                 : 1h 49mn\nOverall bit rate mode                    : Variable\nOverall bit rate                         : 1 557 Kbps\nEncoded date                             : UTC 2014-11-22 09:01:53\n\nVideo\nID                                       : 1\nFormat                                   : AVC\nFormat/Info                              : Advanced Video Codec\nFormat profile                           : &lt;a class=&quot;__cf_email__&quot; href=&quot;/cdn-cgi/l/email-protection&quot; data-cfemail=&quot;d59dbcb2bd9599e1fbe4&quot;&gt;[email&amp;#160;protected]&lt;/a&gt;&lt;script cf-hash='f9e31' type=&quot;text/javascript&quot;&gt;\n/* &lt;![CDATA[ */!function(){try{var t=&quot;currentScript&quot;in document?document.currentScript:function(){for(var t=document.getElementsByTagName(&quot;script&quot;),e=t.length;e--;)if(t[e].getAttribute(&quot;cf-hash&quot;))return t[e]}();if(t&amp;&amp;t.previousSibling){var e,r,n,i,c=t.previousSibling,a=c.getAttribute(&quot;data-cfemail&quot;);if(a){for(e=&quot;&quot;,r=parseInt(a.substr(0,2),16),n=2;a.length-n;n+=2)i=parseInt(a.substr(n,2),16)^r,e+=String.fromCharCode(i);e=document.createTextNode(e),c.parentNode.replaceChild(e,c)}}}catch(u){}}();/* ]]&gt; */&lt;/script&gt;\nFormat settings, CABAC                   : Yes\nFormat settings, ReFrames                : 3 frames\nCodec ID                                 : V_MPEG4/ISO/AVC\nDuration                                 : 1h 49mn\nBit rate mode                            : Variable\nBit rate                                 : 1 334 Kbps\nMaximum bit rate                         : 40.0 Mbps\nWidth                                    : 720 pixels\nHeight                                   : 272 pixels\nDisplay aspect ratio                     : 2.647\nFrame rate mode                          : Constant\nFrame rate                               : 30.000 fps\nColor space                              : YUV\nChroma subsampling                       : 4:2:0\nBit depth                                : 8 bits\nScan type                                : Progressive\nBits/(Pixel*Frame)                       : 0.227\nStream size                              : 1.02 GiB (86%)\nDefault                                  : Yes\nForced                                   : No\nColor primaries                          : BT.709\nTransfer characteristics                 : BT.709\nMatrix coefficients                      : BT.709\n\nAudio\nID                                       : 2\nFormat                                   : AC-3\nFormat/Info                              : Audio Coding 3\nMode extension                           : CM (complete main)\nFormat settings, Endianness              : Big\nCodec ID                                 : A_AC3\nDuration                                 : 1h 49mn\nBit rate mode                            : Constant\nBit rate                                 : 192 Kbps\nChannel(s)                               : 2 channels\nChannel positions                        : Front: L R\nSampling rate                            : 48.0 KHz\nBit depth                                : 16 bits\nCompression mode                         : Lossy\nStream size                              : 150 MiB (12%)\nDefault                                  : Yes\nForced                                   : No\n\n\n[IMG]http://i.imgur.com/hvqQbuc.png[/IMG]\n[IMG]http://i.imgur.com/hvqQbuc.png[/IMG]\n[IMG]http://i.imgur.com/hvqQbuc.png[/IMG]\n[IMG]http://i.imgur.com/hvqQbuc.png[/IMG]\n[IMG]http://i.imgur.com/964twvu.png[/IMG]","torrent":{"xt":"urn:btih:5234f7dc90f62d83ed3abbf284a175f1a4aecae7","amp;dn":"Serena+2014+HDRIP+X264+AC3+TiTAN","amp;tr":["udp%3A%2F%2Ftracker.openbittorrent.com%3A80","udp%3A%2F%2Fopen.demonii.com%3A1337","udp%3A%2F%2Ftracker.coppersurfer.tk%3A6969","udp%3A%2F%2Fexodus.desync.com%3A6969"],"infoHash":"5234f7dc90f62d83ed3abbf284a175f1a4aecae7","infoHashBuffer":{"type":"Buffer","data":[82,52,247,220,144,246,45,131,237,58,187,242,132,161,117,241,164,174,202,231]},"announce":[],"urlList":[]}}